<svg id="Main_White_Logo" data-name="Main White Logo" xmlns="http://www.w3.org/2000/svg" viewBox="0 0 1000 1000"><defs><style>.cls-1,.cls-2{fill:#fff;}.cls-2{font-size:115.1px;font-family:Teko-SemiBold, Teko SemiBold;font-weight:600;}.cls-3{letter-spacing:-0.04em;}</style></defs><path id="BNR" class="cls-1" d="M413.41,235.43,569,484.05a7.1,7.1,0,0,0,13.12-3.78l-.49-241.06a7.09,7.09,0,0,1,7.1-7.11H885a7.11,7.11,0,0,1,5,2l24.95,24.48a7.12,7.12,0,0,1,2.12,5.07l0,185.94a7.14,7.14,0,0,1-2.13,5.08l-24.79,24.23a7.06,7.06,0,0,1-4.93,2l-52.73.21a7.1,7.1,0,0,0-6.23,10.46l96.65,180.46a7.11,7.11,0,0,1-6.26,10.46H825.79a7.09,7.09,0,0,1-6.28-3.8L716.25,481.92a7,7,0,0,1-.81-3.33l.17-37.68a7.09,7.09,0,0,1,7.08-7.06l82.09-.19a7.11,7.11,0,0,0,7.09-7.09l.19-129.8a7.09,7.09,0,0,0-7.11-7.11l-111,.23a7.1,7.1,0,0,0-7.08,7.1l-.2,378.45a7.1,7.1,0,0,1-7.1,7.1H600.75a7.13,7.13,0,0,1-6-3.3L440.63,436.57a7.09,7.09,0,0,0-6-3.29h0a7.1,7.1,0,0,0-7.1,7.08L427,675.45a7.11,7.11,0,0,1-7.1,7.09H133.28a7.13,7.13,0,0,1-5.26-2.33l-23.27-25.59a16.68,16.68,0,0,1-4.32-11.19V509.29a7.11,7.11,0,0,1,3.67-6.22L158,473.38a7.11,7.11,0,0,0,.11-12.38L98,426.48a7.12,7.12,0,0,1-3.56-6.16v-160a7.1,7.1,0,0,1,3.31-6l33.48-21.15A7.14,7.14,0,0,1,135,232.1H407.39A7.11,7.11,0,0,1,413.41,235.43Zm-90.55,54H188.29V414.12l48,29.17h86.57ZM236.85,500l-47.54,24.26V633.62H322.86V500Z"/><text class="cls-2" transform="translate(104.66 808.61) scale(0.83 1)">- Build New Revolution <tspan class="cls-3" x="939.3" y="0">-</tspan></text></svg>